<mxfile host="app.diagrams.net" modified="2020-03-14T01:41:18.224Z" agent="Mozilla/5.0 (Macintosh; Intel Mac OS X 10_15_3) AppleWebKit/537.36 (KHTML, like Gecko) Chrome/80.0.3987.132 Safari/537.36" etag="5HfLIqhy69SasFKYr74Q" version="12.8.4" type="github">
  <diagram id="tgx5qRNd7c81VqCin17c" name="Page-1">
    <mxGraphModel dx="870" dy="783" grid="1" gridSize="10" guides="1" tooltips="1" connect="1" arrows="1" fold="1" page="1" pageScale="1" pageWidth="827" pageHeight="1169" math="0" shadow="0">
      <root>
        <mxCell id="0" />
        <mxCell id="1" parent="0" />
      </root>
    </mxGraphModel>
  </diagram>
</mxfile>
